PathFileType	4	(X/Y/Z)	C:\Users\u0088756\Documents\documenten\fwo_project_balance\Data\SyncDataCardiff_Elderly\osimData\pp_9\Static.trc
DataRate	CameraRate	NumFrames	NumMarkers	Units	OrigDataRate	OrigDataStartFrame	OrigNumFrames
200.000000	200.000000	9	50	m	200.000000	296	1180
Frame#	Times	LASI			RASI			LPSI			RPSI			RKNE			RKNEmed			RTHI			RTHI2			RTHI3			RANK			RANKmed			RTIB			RTIB2			RTIB3			RTOE			RHEE			RLatFoot			LKNE			LKNEmed			LTHI			LTHI2			LTHI3			LANK			LANKmed			LTIB			LTIB2			LTIB3			LTOE			LHEE			LLatFoot			Block1			Block2			Block3			Block4			CLAV			RSHO			LSHO			C7			LELB			LUA1			LWRA			LWRB			LLA1			LFIN			RELB			RUA1			RWRA			RWRB			RLA1			RFIN
		X1	Y1	Z1	X2	Y2	Z2	X3	Y3	Z3	X4	Y4	Z4	X5	Y5	Z5	X6	Y6	Z6	X7	Y7	Z7	X8	Y8	Z8	X9	Y9	Z9	X10	Y10	Z10	X11	Y11	Z11	X12	Y12	Z12	X13	Y13	Z13	X14	Y14	Z14	X15	Y15	Z15	X16	Y16	Z16	X17	Y17	Z17	X18	Y18	Z18	X19	Y19	Z19	X20	Y20	Z20	X21	Y21	Z21	X22	Y22	Z22	X23	Y23	Z23	X24	Y24	Z24	X25	Y25	Z25	X26	Y26	Z26	X27	Y27	Z27	X28	Y28	Z28	X29	Y29	Z29	X30	Y30	Z30	X31	Y31	Z31	X32	Y32	Z32	X33	Y33	Z33	X34	Y34	Z34	X35	Y35	Z35	X36	Y36	Z36	X37	Y37	Z37	X38	Y38	Z38	X39	Y39	Z39	X40	Y40	Z40	X41	Y41	Z41	X42	Y42	Z42	X43	Y43	Z43	X44	Y44	Z44	X45	Y45	Z45	X46	Y46	Z46	X47	Y47	Z47	X48	Y48	Z48	X49	Y49	Z49	X50	Y50	Z50

296	1.48	0.13334	1.0029	-0.1355	0.11404	0.99514	0.12856	-0.12738	1.0269	-0.064498	-0.12401	1.0172	0.059932	0.021478	0.53706	0.16412	0.039427	0.50916	0.041639	0.062595	0.71402	0.16914	0.0093598	0.6894	0.17587	0.03805	0.66421	0.17301	-0.064442	0.11935	0.15877	-0.0076918	0.11734	0.081616	0.031488	0.34549	0.1343	-0.012887	0.35019	0.18285	0.012062	0.30028	0.16236	0.11452	0.050455	0.11797	-0.12049	0.067687	0.099136	-0.006888	0.035237	0.19687	0.023796	0.53631	-0.19174	0.052957	0.51899	-0.0742	0.043125	0.71093	-0.20583	-0.017265	0.68867	-0.19204	0.031506	0.65444	-0.20201	-0.035909	0.10809	-0.19116	-0.00049672	0.11709	-0.10291	0.046705	0.3611	-0.15329	0.0044927	0.36341	-0.20658	0.031468	0.32083	-0.18445	0.13138	0.065712	-0.16448	-0.10458	0.067545	-0.13459	0.027746	0.027921	-0.22724	0.49731	0.046858	-0.63754	-0.30782	0.038472	-0.64159	-0.36489	0.032548	0.63991	0.40421	0.045837	0.61632	0.11204	1.4393	-0.031085	-0.010339	1.4792	0.18096	-0.017418	1.4641	-0.23453	-0.069685	1.5412	-0.024105	-0.015969	1.1335	-0.3104	0.0034984	1.2923	-0.27001	0.13203	0.91705	-0.25277	0.098017	0.8945	-0.31549	0.079242	1.0442	-0.29404	0.15632	0.84462	-0.29093	-0.036034	1.17	0.2882	-0.022107	1.3094	0.23754	0.10343	0.93364	0.24604	0.060029	0.92565	0.30944	0.016971	1.0616	0.30502	0.11748	0.87938	0.28932
297	1.485	0.13339	1.0029	-0.13549	0.11408	0.99514	0.12856	-0.12734	1.0269	-0.064492	-0.12398	1.0172	0.059955	0.021504	0.53709	0.16412	0.039392	0.50916	0.04163	0.06256	0.71404	0.16912	0.0093956	0.68941	0.17586	0.038105	0.6642	0.17299	-0.064455	0.11935	0.15877	-0.0077046	0.11735	0.081609	0.031495	0.34548	0.13431	-0.012896	0.35019	0.18284	0.012037	0.30028	0.16237	0.1146	0.050483	0.11798	-0.12052	0.0677	0.099133	-0.0068667	0.035252	0.19691	0.023819	0.53631	-0.19173	0.052954	0.51897	-0.07422	0.043151	0.71093	-0.20583	-0.017266	0.68867	-0.19204	0.031511	0.65446	-0.20206	-0.03595	0.10802	-0.19095	-0.00050311	0.11708	-0.10291	0.046719	0.36109	-0.15327	0.0044999	0.36341	-0.20658	0.031469	0.32084	-0.18447	0.13139	0.065715	-0.1645	-0.1046	0.067544	-0.13455	0.027827	0.027895	-0.22721	0.49728	0.04687	-0.63756	-0.30781	0.03846	-0.64158	-0.36489	0.032541	0.63991	0.40419	0.04582	0.61631	0.11208	1.4393	-0.031085	-0.010299	1.4792	0.18096	-0.017372	1.4641	-0.23455	-0.069657	1.5412	-0.024123	-0.015924	1.1336	-0.31036	0.0035379	1.2923	-0.27004	0.13208	0.91703	-0.25275	0.098035	0.89448	-0.3155	0.079241	1.0442	-0.29405	0.15631	0.84459	-0.29095	-0.036004	1.17	0.28819	-0.022065	1.3094	0.23753	0.10349	0.93364	0.24603	0.060069	0.92566	0.30941	0.016979	1.0616	0.30504	0.11746	0.87936	0.2893
298	1.49	0.13342	1.0029	-0.13549	0.1141	0.99514	0.12857	-0.12729	1.0269	-0.0645	-0.12398	1.0172	0.059948	0.021521	0.53708	0.16411	0.039415	0.50915	0.041627	0.062575	0.71401	0.16913	0.0093949	0.6894	0.17587	0.038102	0.6642	0.173	-0.064461	0.11934	0.15874	-0.0077095	0.11734	0.081606	0.031505	0.34548	0.1343	-0.012885	0.35021	0.18284	0.012055	0.30028	0.16237	0.1145	0.050445	0.11797	-0.1205	0.067706	0.099125	-0.0068119	0.035191	0.1968	0.023811	0.53632	-0.19171	0.052985	0.51897	-0.074236	0.043225	0.71079	-0.206	-0.017262	0.68869	-0.19206	0.031528	0.65446	-0.20206	-0.035918	0.10807	-0.19116	-0.00049594	0.11709	-0.10291	0.046722	0.36109	-0.15328	0.004478	0.36342	-0.20659	0.031467	0.32084	-0.18446	0.13137	0.065713	-0.16448	-0.1046	0.067541	-0.13455	0.027855	0.027905	-0.22721	0.49728	0.046864	-0.63751	-0.30782	0.038459	-0.64159	-0.36489	0.032555	0.63989	0.4042	0.045823	0.61633	0.11212	1.4393	-0.031085	-0.010231	1.4792	0.18096	-0.017341	1.4641	-0.23453	-0.06961	1.5412	-0.024128	-0.015895	1.1336	-0.31034	0.0035531	1.2923	-0.27003	0.13199	0.91699	-0.25277	0.098023	0.89446	-0.31547	0.079255	1.0441	-0.29402	0.15628	0.84457	-0.29094	-0.035939	1.1701	0.28819	-0.022036	1.3094	0.23753	0.1035	0.93363	0.24602	0.060088	0.92567	0.30941	0.017	1.0616	0.30504	0.1175	0.87937	0.2893
299	1.495	0.13347	1.0029	-0.13548	0.11413	0.99513	0.12857	-0.12727	1.027	-0.064481	-0.12391	1.0172	0.059941	0.021553	0.53709	0.16412	0.039429	0.50914	0.041639	0.062629	0.71401	0.16913	0.0093609	0.68936	0.1759	0.03815	0.6642	0.173	-0.064464	0.11935	0.1588	-0.007694	0.11733	0.081608	0.031516	0.34548	0.13431	-0.012839	0.3502	0.18284	0.012043	0.30028	0.16237	0.11454	0.050451	0.11803	-0.12052	0.067689	0.099146	-0.0068274	0.03518	0.19682	0.023834	0.53632	-0.19172	0.053001	0.51897	-0.074221	0.04323	0.71078	-0.20598	-0.017231	0.68868	-0.19206	0.031534	0.65446	-0.20204	-0.035936	0.10808	-0.19113	-0.0005019	0.11708	-0.10291	0.046719	0.3611	-0.15327	0.0044915	0.36343	-0.20657	0.031453	0.32085	-0.18447	0.13137	0.065717	-0.1645	-0.10462	0.067545	-0.13453	0.027854	0.027904	-0.22721	0.49727	0.046836	-0.63756	-0.30781	0.038473	-0.64161	-0.36486	0.032524	0.63992	0.40422	0.045834	0.61632	0.11216	1.4393	-0.031098	-0.0102	1.4792	0.18096	-0.017285	1.4641	-0.23453	-0.06955	1.5412	-0.024119	-0.015874	1.1336	-0.31034	0.0035757	1.2923	-0.27003	0.13194	0.91698	-0.25278	0.098028	0.89443	-0.3155	0.079289	1.0441	-0.29402	0.15632	0.84456	-0.29092	-0.035904	1.1701	0.2882	-0.021979	1.3094	0.23752	0.10352	0.93364	0.24602	0.060093	0.92567	0.30943	0.017025	1.0617	0.30504	0.11753	0.87939	0.28932
300	1.5	0.13345	1.0029	-0.13552	0.11417	0.99514	0.12856	-0.12723	1.027	-0.064483	-0.12387	1.0172	0.05995	0.02157	0.53709	0.16413	0.039443	0.50915	0.041622	0.062629	0.71401	0.16913	0.0093968	0.68939	0.17591	0.038187	0.66419	0.17299	-0.06448	0.11935	0.15876	-0.0076813	0.11734	0.081613	0.03153	0.34548	0.1343	-0.012847	0.3502	0.18285	0.012053	0.30028	0.16237	0.11453	0.050431	0.11801	-0.12049	0.067696	0.099138	-0.0067947	0.035139	0.19678	0.02382	0.53632	-0.19171	0.053015	0.51896	-0.074209	0.043251	0.71079	-0.20597	-0.017249	0.68868	-0.19205	0.031541	0.65445	-0.20206	-0.035926	0.10806	-0.19116	-0.0005088	0.11709	-0.10291	0.046732	0.3611	-0.15327	0.0044817	0.36342	-0.2066	0.03148	0.32084	-0.18446	0.13139	0.065712	-0.16448	-0.10457	0.067546	-0.13456	0.027801	0.027926	-0.22723	0.49729	0.046856	-0.63755	-0.30782	0.038479	-0.64156	-0.36489	0.0325	0.63993	0.40422	0.045822	0.61633	0.11221	1.4393	-0.031105	-0.010154	1.4792	0.18097	-0.017211	1.4641	-0.23452	-0.069513	1.5412	-0.024121	-0.015901	1.1335	-0.31037	0.0036095	1.2922	-0.27001	0.1319	0.91696	-0.25276	0.098035	0.89445	-0.31546	0.079296	1.0441	-0.29402	0.1563	0.84454	-0.29094	-0.035896	1.1701	0.28821	-0.021958	1.3094	0.23753	0.10355	0.93365	0.24603	0.060117	0.92568	0.30943	0.017079	1.0616	0.30504	0.11755	0.87939	0.28932
301	1.505	0.13352	1.0029	-0.13547	0.11422	0.99514	0.12858	-0.1272	1.027	-0.064485	-0.12382	1.0172	0.059956	0.021597	0.53709	0.16414	0.039481	0.50914	0.041631	0.062655	0.71402	0.16912	0.0094417	0.68939	0.17591	0.03819	0.66419	0.17301	-0.064478	0.11934	0.15879	-0.00768	0.11735	0.081616	0.031557	0.34548	0.13432	-0.012862	0.35018	0.18285	0.012072	0.30029	0.16237	0.11457	0.050462	0.118	-0.12048	0.067698	0.09912	-0.0068157	0.035197	0.1968	0.023843	0.53631	-0.19173	0.053028	0.51898	-0.074196	0.04324	0.71101	-0.20578	-0.017217	0.68868	-0.19206	0.031569	0.65446	-0.20204	-0.035926	0.10803	-0.19097	-0.00048672	0.11708	-0.1029	0.046718	0.3611	-0.15326	0.0044746	0.36342	-0.20659	0.031505	0.32085	-0.18445	0.13139	0.065715	-0.16449	-0.10461	0.067546	-0.13453	0.027867	0.027889	-0.2272	0.49727	0.046831	-0.63753	-0.30779	0.038466	-0.6416	-0.36488	0.032501	0.63993	0.40421	0.045829	0.61631	0.11226	1.4393	-0.031093	-0.010117	1.4792	0.18096	-0.017184	1.4641	-0.23454	-0.069495	1.5412	-0.024139	-0.015844	1.1335	-0.31033	0.0036429	1.2922	-0.27003	0.13206	0.91695	-0.25273	0.098046	0.8944	-0.31549	0.079304	1.0441	-0.29401	0.15628	0.84452	-0.29092	-0.035877	1.1701	0.28819	-0.021932	1.3094	0.23753	0.10359	0.93364	0.24602	0.060123	0.92568	0.30941	0.017099	1.0617	0.30503	0.11757	0.87939	0.28932
302	1.51	0.13355	1.0029	-0.13545	0.11427	0.99514	0.12858	-0.12717	1.027	-0.064449	-0.1238	1.0172	0.05994	0.021615	0.53707	0.16414	0.039492	0.50915	0.04166	0.062711	0.71401	0.16911	0.0095323	0.68939	0.17588	0.038203	0.66419	0.17298	-0.064462	0.11934	0.15879	-0.0077067	0.11733	0.081614	0.031568	0.34549	0.13431	-0.012849	0.3502	0.18285	0.012061	0.30028	0.16239	0.11451	0.050426	0.11801	-0.12047	0.067707	0.099128	-0.0067955	0.035211	0.19684	0.023849	0.53632	-0.19174	0.053105	0.51901	-0.07419	0.043288	0.7108	-0.20598	-0.01718	0.68869	-0.19209	0.031606	0.65445	-0.20202	-0.035959	0.10804	-0.19101	-0.0004946	0.11709	-0.10289	0.04672	0.36109	-0.15328	0.0045058	0.36343	-0.20658	0.031484	0.32085	-0.18446	0.13139	0.065718	-0.16449	-0.1046	0.067541	-0.13455	0.027846	0.027903	-0.22722	0.49727	0.046863	-0.63753	-0.30782	0.038461	-0.64156	-0.3649	0.032532	0.63994	0.40419	0.045835	0.61633	0.1123	1.4393	-0.031093	-0.010082	1.4792	0.18095	-0.017187	1.4641	-0.23454	-0.06943	1.5412	-0.024141	-0.015795	1.1335	-0.31033	0.0036695	1.2922	-0.27002	0.13205	0.91694	-0.25271	0.098038	0.8944	-0.31547	0.079318	1.0441	-0.294	0.1563	0.8445	-0.29091	-0.035819	1.1701	0.2882	-0.021892	1.3094	0.23753	0.10357	0.93366	0.24606	0.060158	0.92569	0.30945	0.017093	1.0617	0.30505	0.11759	0.87938	0.28933
303	1.515	0.13354	1.0029	-0.13548	0.11427	0.99514	0.12858	-0.12713	1.027	-0.064464	-0.12376	1.0172	0.059935	0.021622	0.53709	0.16415	0.039497	0.50914	0.041648	0.062737	0.71401	0.16911	0.0094964	0.68938	0.17591	0.038256	0.66419	0.173	-0.064462	0.11933	0.15877	-0.0077011	0.11734	0.081611	0.031554	0.34548	0.1343	-0.012796	0.35021	0.18286	0.012075	0.30027	0.16239	0.11457	0.050474	0.11802	-0.12049	0.067711	0.099139	-0.0069163	0.035247	0.19696	0.023879	0.53631	-0.19171	0.05306	0.51898	-0.074233	0.043309	0.71103	-0.20578	-0.017164	0.68869	-0.19207	0.03163	0.65447	-0.20204	-0.035953	0.10804	-0.19097	-0.00051003	0.11708	-0.10291	0.046729	0.36109	-0.15329	0.0045264	0.36344	-0.20658	0.031489	0.32085	-0.18448	0.13138	0.065711	-0.16449	-0.1046	0.067544	-0.13456	0.027853	0.02788	-0.2272	0.4973	0.046882	-0.63753	-0.30779	0.038478	-0.64156	-0.36488	0.032519	0.63993	0.40419	0.04582	0.61631	0.11234	1.4393	-0.031099	-0.010047	1.4792	0.18096	-0.017125	1.4641	-0.23454	-0.0694	1.5412	-0.024138	-0.015761	1.1335	-0.31028	0.0037161	1.2922	-0.27001	0.13201	0.91691	-0.25273	0.098056	0.89438	-0.31546	0.079325	1.0441	-0.294	0.15629	0.84449	-0.29091	-0.0358	1.1701	0.28821	-0.021871	1.3094	0.23752	0.10359	0.93365	0.24605	0.06018	0.92569	0.30943	0.017115	1.0617	0.30504	0.11761	0.87938	0.28933
304	1.52	0.1336	1.0029	-0.13548	0.1143	0.99513	0.12857	-0.12702	1.0269	-0.064415	-0.12374	1.0172	0.059968	0.021625	0.53707	0.16416	0.039506	0.50913	0.041638	0.062744	0.71401	0.16911	0.0096048	0.6894	0.17588	0.038268	0.6642	0.17301	-0.064484	0.11935	0.15879	-0.0076988	0.11736	0.081606	0.031546	0.34547	0.13433	-0.012807	0.35019	0.18285	0.012089	0.30028	0.16238	0.11455	0.050477	0.11801	-0.12051	0.067689	0.099157	-0.0068776	0.035183	0.1969	0.024026	0.53631	-0.19187	0.053064	0.51896	-0.074219	0.043269	0.711	-0.20578	-0.017163	0.68868	-0.19206	0.031639	0.65444	-0.202	-0.03593	0.10807	-0.19115	-0.00050171	0.11707	-0.10291	0.046731	0.36109	-0.15327	0.0045062	0.36341	-0.20661	0.031487	0.32085	-0.18447	0.13138	0.065712	-0.16449	-0.1046	0.067529	-0.13455	0.027854	0.027869	-0.22724	0.49725	0.046749	-0.6375	-0.30779	0.038451	-0.6416	-0.3649	0.032562	0.63995	0.4042	0.045795	0.61631	0.11238	1.4393	-0.03112	-0.010001	1.4792	0.18096	-0.0171	1.4641	-0.23455	-0.069357	1.5412	-0.024148	-0.015772	1.1335	-0.31028	0.0037288	1.2922	-0.27001	0.13192	0.91689	-0.25274	0.098049	0.89436	-0.31546	0.079365	1.0441	-0.29397	0.1563	0.84447	-0.29092	-0.035767	1.1701	0.28818	-0.021834	1.3094	0.23753	0.10363	0.93365	0.24606	0.06018	0.92568	0.30943	0.017163	1.0617	0.30504	0.1176	0.87939	0.28936
